<?xml version="1.0" encoding="utf-8"?>
<!-- Generator: Adobe Illustrator 23.0.3, SVG Export Plug-In . SVG Version: 6.00 Build 0)  -->
<svg version="1.1" id="Layer_1" xmlns="http://www.w3.org/2000/svg" xmlns:xlink="http://www.w3.org/1999/xlink" x="0px" y="0px"
	 viewBox="0 0 96 96" style="enable-background:new 0 0 96 96;" xml:space="preserve">
<style type="text/css">
	.st0{fill:#FF3B3F;}
</style>
<g>
	<path d="M36.5,68.5h-7.4V40l-8.8,2.7v-6l15.4-5.5h0.8V68.5z"/>
	<path d="M72.8,41.2c0,1.8-0.5,3.4-1.4,4.8c-0.9,1.4-2.1,2.5-3.7,3.3c1.8,0.9,3.2,2.1,4.3,3.6s1.6,3.3,1.6,5.4
		c0,1.8-0.3,3.3-0.9,4.6c-0.6,1.3-1.5,2.4-2.6,3.3c-1.1,0.9-2.4,1.6-4,2c-1.5,0.5-3.2,0.7-5,0.7c-1.8,0-3.5-0.2-5-0.7
		c-1.5-0.5-2.9-1.1-4-2c-1.1-0.9-2-2-2.6-3.3c-0.6-1.3-1-2.9-1-4.6c0-2.1,0.5-3.9,1.6-5.4c1.1-1.5,2.5-2.7,4.3-3.6
		c-1.6-0.8-2.8-1.9-3.7-3.3c-0.9-1.4-1.3-3-1.3-4.8c0-1.7,0.3-3.2,0.9-4.5c0.6-1.3,1.4-2.4,2.4-3.3c1-0.9,2.3-1.6,3.7-2
		c1.4-0.5,3-0.7,4.7-0.7c1.7,0,3.3,0.2,4.7,0.7c1.4,0.5,2.7,1.1,3.7,2c1,0.9,1.9,2,2.4,3.3C72.5,38,72.8,39.5,72.8,41.2z M66.1,57.7
		c0-0.8-0.1-1.6-0.4-2.2s-0.6-1.2-1-1.7s-1-0.8-1.6-1.1s-1.3-0.4-2.1-0.4c-0.8,0-1.5,0.1-2.1,0.4c-0.6,0.2-1.2,0.6-1.6,1.1
		c-0.5,0.5-0.8,1-1,1.7c-0.2,0.7-0.4,1.4-0.4,2.2c0,0.8,0.1,1.6,0.4,2.2c0.2,0.7,0.6,1.2,1,1.7c0.5,0.5,1,0.8,1.6,1
		c0.6,0.2,1.4,0.4,2.2,0.4c1.6,0,2.9-0.5,3.8-1.4C65.7,60.7,66.1,59.4,66.1,57.7z M65.4,41.5c0-1.4-0.4-2.6-1.1-3.5
		c-0.8-0.9-1.8-1.3-3.2-1.3c-1.4,0-2.5,0.4-3.2,1.3c-0.8,0.9-1.1,2-1.1,3.5c0,1.5,0.4,2.7,1.1,3.6c0.8,0.9,1.8,1.4,3.2,1.4
		s2.5-0.5,3.2-1.4C65,44.2,65.4,43,65.4,41.5z"/>
</g>
<path class="st0" d="M48,4C23.7,4,4,23.7,4,48c0,24.3,19.7,44,44,44c24.3,0,44-19.7,44-44C92,23.7,72.3,4,48,4z M12,48
	c0-8.5,3-16.3,7.9-22.5l50.6,50.6C64.3,81,56.5,84,48,84C28.1,84,12,67.9,12,48z M76.1,70.5L25.5,19.9C31.7,15,39.5,12,48,12
	c19.9,0,36,16.1,36,36C84,56.5,81,64.3,76.1,70.5z"/>
</svg>
