<?xml version="1.0" encoding="utf-8"?>
<!-- Generator: Adobe Illustrator 23.0.6, SVG Export Plug-In . SVG Version: 6.00 Build 0)  -->
<svg version="1.1" id="圖層_1" xmlns="http://www.w3.org/2000/svg" xmlns:xlink="http://www.w3.org/1999/xlink" x="0px" y="0px"
	 viewBox="0 0 539.7 236.4" style="enable-background:new 0 0 539.7 236.4;" xml:space="preserve">
<style type="text/css">
	.st0{fill:#FFFFFF;}
	.st1{fill:#FE5000;}
</style>
<title>logo-切片</title>
<g>
	<g>
		<path class="st0" d="M42.2,127.1l-24.8,27.6l-2.7,29.9l29.4,0c0,0,10.6-19.1,10.6-19.3c0-0.2-9.8-37.3-9.8-37.3L42.2,127.1z"/>
		<path class="st1" d="M97.2,52.3L97.2,52.3C97.2,52.3,97.2,52.3,97.2,52.3L97.2,52.3c-0.1-0.1-0.2-0.1-0.2-0.2
			c-0.4-0.2-0.8-0.4-1.2-0.4l-61.4,0c-0.5,0-0.9,0.1-1.3,0.4c-0.1,0.1-0.3,0.2-0.4,0.3v0c0,0,0,0,0,0l0,0v0v0c0,0-0.4,0.5-0.4,0.5
			l-2.5,5.7l11.7,68.1l4.9,0.5l52.4-71.3l-0.9-2.4C97.9,53.7,97.2,52.3,97.2,52.3z"/>
		<path d="M37.6,162.5c-0.3,0.5-0.7,1-1.3,1.2c-0.9,0.4-1.9,0.5-2.8,0c-1.4-0.8-2-2.6-1.2-4.1c0.3-0.5,0.7-1,1.3-1.2
			c0.9-0.4,1.9-0.5,2.8,0C37.9,159.2,38.4,161,37.6,162.5z"/>
		<path d="M127.7,184.6c1.3,0,2.3-1,2.3-2.3v-63.7c0-0.4-0.1-0.8-0.3-1.1c0-0.1-31.9-64.4-31.9-64.4c-0.1-0.3-0.4-0.5-0.6-0.8
			l-52.9,73L32.6,52.5c-0.2,0.2-0.3,0.4-0.4,0.6L0.3,117.3c0,0,0,0.1-0.1,0.1c-0.2,0.3-0.3,0.7-0.3,1.1l0,0.4l0,63.3
			c0,1.3,1,2.3,2.3,2.3l12.4,0l3.2-24.3l0.4-3.2c0.1-0.3,0-1,1.5-2.7c7.6-8.5,15.2-16.9,22.8-25.4c0.2-0.2,0.5-0.3,0.7-0.2
			c0.3,0.1,0.4,0.3,0.5,0.5l7.6,33.3l0.2,1.1c0.2,1,0,1.4-0.2,2c0,0,0,0,0,0L44,184.6L127.7,184.6z M118,138.1h4.5v4.5H118V138.1z
			 M122.5,174H118v-4.5h4.5V174z M122.5,158.3H118v-4.5h4.5V158.3z M122.5,126.9H118v-4.5h4.5V126.9z"/>
	</g>
	<g>
		<polygon points="358.6,184.6 364.1,184.6 364.1,172 381.3,172 381.3,166.5 364.1,166.5 364.1,160.8 381.3,160.8 381.3,155.3 
			358.6,155.3 		"/>
		<rect x="464.4" y="155.3" width="5.5" height="29.3"/>
		<polygon points="433,160.8 441.6,160.8 441.6,184.6 447.1,184.6 447.1,160.8 455.7,160.8 455.7,155.3 433,155.3 		"/>
		<rect x="192.1" y="155.3" width="5.5" height="29.3"/>
		<path d="M283.9,155.3c-8.1,0-14.7,6.6-14.7,14.7c0,8.1,6.6,14.7,14.7,14.7c8.1,0,14.7-6.6,14.7-14.7
			C298.6,161.8,292,155.3,283.9,155.3z M283.9,179.1c-5.1,0-9.2-4.1-9.2-9.2c0-5.1,4.1-9.2,9.2-9.2c5.1,0,9.2,4.1,9.2,9.2
			C293.1,175,289,179.1,283.9,179.1z"/>
		<path d="M493.4,155.3c-8.1,0-14.7,6.6-14.7,14.7s6.6,14.7,14.7,14.7c8.1,0,14.7-6.6,14.7-14.7S501.5,155.3,493.4,155.3z
			 M493.4,179.1c-5.1,0-9.2-4.1-9.2-9.2c0-5.1,4.1-9.2,9.2-9.2c5.1,0,9.2,4.1,9.2,9.2C502.6,175,498.5,179.1,493.4,179.1z"/>
		<g>
			<path d="M393.2,175.5c-0.1-0.1-0.2-0.2-0.3-0.2c0,0,0,0,0,0c-0.1,0-0.3,0.1-0.3,0.2l-2.6,4.9c0,0,0,0.1,0,0.1
				c0,0.3,0.6,3.9,0.6,3.9c0,0.2,0.1,0.2,0.2,0.2h4.3c0.1,0,0.2-0.1,0.2-0.2c0,0,0.6-3.5,0.6-3.9c0-0.1,0-0.1,0-0.1L393.2,175.5z"/>
			<polygon points="391.3,172 394.4,172 396.4,155.3 389.3,155.3 			"/>
		</g>
		<polygon points="534.1,155.3 534.1,174.2 522.4,155.3 516.9,155.3 516.9,155.3 516.9,155.3 516.9,184.6 516.9,184.6 522.4,184.6 
			522.4,184.6 522.4,165.7 534.1,184.6 539.6,184.6 539.7,155.3 539.7,155.3 		"/>
		<polygon points="166.7,176.7 157.9,155.3 152.4,155.3 152.4,184.6 157.9,184.6 157.9,169.8 163.9,184.6 169.4,184.6 175.4,169.8 
			175.4,184.6 180.9,184.6 180.9,155.3 175.4,155.3 		"/>
		<path d="M221.4,155.3l-12.3,0v0v29.3h5.5l0-12l6.5,0l3.4,12h5.5l-3.8-13.5c2.3-1.6,3.8-4.2,3.8-7.2c0,0,0,0,0,0
			C230.1,159.2,226.2,155.3,221.4,155.3z M221.4,167.1h-6.8v-3.1v0v-3.1h6.8c1.7,0,3.1,1.4,3.1,3.1
			C224.6,165.7,223.2,167.1,221.4,167.1z"/>
		<g>
			<path d="M387.7,123c-0.2-0.1-19.8-7.5-34.8-20.6c11.6-12.8,16.3-26.5,17.8-31.7h0.4h14.6V62H351V51.8h-8.7V62h-34.7v8.7h14.7h0.4
				c1.5,5.2,6.3,18.9,17.9,31.7c-14.9,13.1-34.7,20.6-34.9,20.7l-0.7,0.2l3,8.1l0.7-0.2c0.9-0.3,21.9-8.3,38.1-22.7
				c16.2,14.4,37.1,22.3,38,22.6l0.7,0.2l3-8.1L387.7,123z M346.7,96.3c-8.7-9.7-13.1-20.1-15-25.6h29.9
				C359.8,76.2,355.4,86.6,346.7,96.3z"/>
			<g>
				<path d="M230.3,118.1l0,0.4c-0.1,1.3-0.4,3-0.7,3.5c-0.6,1.2-1.8,1.8-3.3,1.8l-4.7,0c-1.1,0-2-0.9-2-2v-9.3l12.3,0l0-30.6l-42,0
					l0,30.6h9.5c-0.4,1.9-1.5,5-4,7.4c-4.2,4-10.7,5.4-11,5.4l-0.4,0.1l2.8,7.4l0.3-0.1c2.5-0.6,9-2.6,13.7-7.1
					c4.8-4.5,6.1-10.5,6.5-13.1h4.5V124c0,4.2,3.5,7.6,7.7,7.6l9.7,0c0,0,0,0,0,0c6.8,0,8.4-8.5,8.7-11.1l0-0.3L230.3,118.1z
					 M197.8,89.8l26.2,0v3.5l-26.2,0V89.8z M197.7,104.7v-3.5l26.2,0v3.5H197.7z"/>
				<path d="M233.1,70.5h-10.6l2.6-5.7h8.1v-7.9l-18.6,0v-5.1h-7.9v5.1h-18.1v7.9h8.1l2.6,5.7l-10.7,0v7.9l44.6,0V70.5z M214.7,70.5
					h-7.6l-2.7-5.7h13L214.7,70.5z"/>
				<path d="M174.6,113.6l7.2,1.4c0,0,1.7-7.2,3.4-15.5c-0.8-0.2-7.7-1.6-7.7-1.6L174.6,113.6z"/>
				<path d="M159.8,99.5c-1.7,0.6-7.4,2.7-7.4,2.7s3.4,9.5,5.5,17.5c0.1,0,6.9-2.5,6.9-2.5S162.4,106.4,159.8,99.5z"/>
				<path d="M173.5,95.8h10.4v-7.9h-10.4v-6.7h10.4v-7.9h-1l4.1-4.6l-0.3-0.2c-7.1-4.7-11.6-9.5-13.3-11.5c0.2-0.5,0.4-1.4,0.4-1.4
					l0.7-2.3l-7.9-1.6l-0.1,0.3c-3.5,15.3-17.6,25-17.8,25.1l-0.4,0.2l5.5,5.6l0.2-0.1c0,0,0.9-0.6,2.2-1.7h9.1v6.7h-10.9v7.9h10.9
					v25.7c-6.9,1.9-12.3,3.1-13.2,3.3l2.1,7.6c1.6-0.3,15.8-3.7,29.3-8.2v-8.3c-3.4,1.2-7,2.3-10.4,3.3V95.8z M164.3,73.3
					c2.2-2.7,4.1-5.5,5.6-8.4c2.1,2.1,5.3,5.1,9.9,8.4L164.3,73.3z"/>
			</g>
			<g>
				<path d="M532.4,87.5l0-33.4h-18.1V62l10.2,0v3.3h-10.2v7.9h10.2v3.3h-10.2v7.9h10.2v3.3h-47.6v-3.3h10.2v-7.9h-10.2v-3.3h10.2
					v-7.9h-10.2v-2.8c2.5-0.8,6.3-2.2,10.2-4.3c-0.3-0.3-4.6-5.5-5.3-6.4c-4.3,2.4-7.9,3.5-9.6,3.9H469v31.8h-7.3V104h7.9v-8.6h62.2
					v7.5h7.9V87.5H532.4z"/>
				<path d="M493.3,68.8c0,0,4.6-1.6,8.1-3.9c1.7,1.4,4.2,4.1,4.2,4.1l5.5-4.9c0,0-2.5-2.7-4-4c0,0,1.7-1.5,3.6-3.8l-5.7-4.5
					c0,0-2.3,2.7-3.6,4c-2.5-1.8-5.8-3.9-5.8-3.9l-4.9,5.5c0,0,3.4,2.3,4.5,3c-1.4,0.8-5,2.1-5,2.1L493.3,68.8z"/>
				<path d="M501.4,82.7c1.7,1.4,4.2,4.1,4.2,4.1l5.5-4.9c0,0-2.5-2.7-4-4c0,0,1.7-1.5,3.6-3.8l-5.7-4.5c0,0-2.3,2.7-3.6,4
					c-2.5-1.8-5.8-3.9-5.8-3.9l-4.9,5.5c0,0,3.4,2.3,4.5,3c-1.4,0.8-5,2.1-5,2.1l3,6.3C493.3,86.6,498,85,501.4,82.7z"/>
				<path d="M510.9,112.8l13.8-7.1l-3.6-7h-43.3v7.9h28.1l-4.9,2.5l-3.9-0.3v4v0h-35.2v7.9H497v4.1c0,0.1-0.1,0.2-0.2,0.2l-10.2,0
					l1.3,7.9h8.9c4.5,0,8.1-3.6,8.1-8.1l0-4.1h34.8v-7.9L510.9,112.8L510.9,112.8z"/>
			</g>
		</g>
		<path d="M261.2,163.9C261.2,163.9,261.2,163.9,261.2,163.9c0-4.8-3.9-8.7-8.7-8.7l-6.8,0l-5.5,0v0v29.3h5.5l0-12l6.2,0l4.1,12h5.5
			l-4.5-13.3C259.5,169.8,261.2,167,261.2,163.9z M252.5,167.1h-6.8v-3.1v0v-3.1h6.8c1.7,0,3.1,1.4,3.1,3.1
			C255.7,165.7,254.3,167.1,252.5,167.1z"/>
		<path d="M328.3,163.9C328.3,163.9,328.3,163.9,328.3,163.9c0-4.8-3.9-8.7-8.7-8.7l-6.8,0v0l-5.5,0v0v29.3h5.5l0-12l6.2,0l4.1,12
			h5.5l-4.5-13.3C326.7,169.8,328.3,167,328.3,163.9z M319.7,167.1h-6.8v-3.1v0v-3.1h6.8c1.7,0,3.1,1.4,3.1,3.1
			C322.8,165.7,321.4,167.1,319.7,167.1z"/>
		<path d="M421.6,174.8c-0.7,2.5-2.9,4.3-5.6,4.3h-0.1h-0.1c-3.2,0-5.8-2.6-5.8-5.8v-0.4V167v-0.4c0-3.2,2.6-5.8,5.8-5.8h0.1h0.1
			c2.7,0,4.9,1.8,5.6,4.3l5.4-0.9c-1.2-5.1-5.7-8.9-11.1-8.9c0,0,0,0,0,0h0c-6.3,0-11.4,5.1-11.4,11.4v6.5c0,6.3,5.1,11.4,11.4,11.4
			h0c0,0,0,0,0,0c5.4,0,10-3.8,11.1-8.9L421.6,174.8z"/>
	</g>
</g>
</svg>
